<?xml version="1.0" encoding="UTF-8" standalone="no"?><!DOCTYPE svg PUBLIC "-//W3C//DTD SVG 1.1//EN" "http://www.w3.org/Graphics/SVG/1.1/DTD/svg11.dtd"><!-- Generated by graphviz version 2.40.1 (20161225.0304)
 --><!-- Title: PascalLexerDFA Pages: 1 --><svg xmlns="http://www.w3.org/2000/svg" xmlns:xlink="http://www.w3.org/1999/xlink" width="1029pt" height="2461pt" viewBox="0.00 0.00 1028.54 2461.44">
<g id="graph0" class="graph" transform="scale(1 1) rotate(0) translate(4 2457.4373)">
<title>PascalLexerDFA</title>
<polygon fill="#ffffff" stroke="transparent" points="-4,4 -4,-2457.4373 1024.541,-2457.4373 1024.541,4 -4,4"/>
<!-- q0 -->
<g id="node1" class="node">
<title>q0</title>
<ellipse fill="#000000" stroke="#000000" cx="72.4891" cy="-683.8438" rx="34.4783" ry="34.4783"/>
<text text-anchor="middle" x="72.4891" y="-686.8438" font-family="Arial" font-size="10.00" fill="#000000">q0</text>
<text text-anchor="middle" x="72.4891" y="-674.8438" font-family="Arial" font-size="10.00" fill="#000000">START</text>
</g>
<!-- q0&#45;&gt;q0 -->
<g id="edge57" class="edge">
<title>q0-&gt;q0</title>
<path fill="none" stroke="#000000" d="M62.7415,-717.1605C62.8415,-727.856 66.0907,-736.3329 72.4891,-736.3329 76.6881,-736.3329 79.5308,-732.6822 81.0173,-727.1495"/>
<polygon fill="#000000" stroke="#000000" points="84.4991,-727.5109 82.2368,-717.1605 77.5506,-726.6626 84.4991,-727.5109"/>
<text text-anchor="middle" x="72.4891" y="-739.0329" font-family="Arial" font-size="9.00" fill="#000000">space / tab / newline</text>
</g>
<!-- q_identifier -->
<g id="node2" class="node">
<title>q_identifier</title>
<ellipse fill="#add8e6" stroke="#000000" cx="235.6449" cy="-2314.8438" rx="50.6803" ry="50.6803"/>
<ellipse fill="none" stroke="#000000" cx="235.6449" cy="-2314.8438" rx="54.6871" ry="54.6871"/>
<text text-anchor="middle" x="235.6449" y="-2317.8438" font-family="Arial" font-size="10.00" fill="#000000">q_identifier</text>
<text text-anchor="middle" x="235.6449" y="-2305.8438" font-family="Arial" font-size="10.00" fill="#000000">IDENTIFIER</text>
</g>
<!-- q0&#45;&gt;q_identifier -->
<g id="edge12" class="edge">
<title>q0-&gt;q_identifier</title>
<path fill="none" stroke="#000000" d="M72.7329,-718.4634C74.4229,-942.2635 85.5188,-2177.4723 124.9783,-2245.8438 136.363,-2265.5702 155.8881,-2280.4478 175.3983,-2291.2414"/>
<polygon fill="#000000" stroke="#000000" points="173.8491,-2294.3809 184.3321,-2295.9159 177.0944,-2288.1786 173.8491,-2294.3809"/>
<text text-anchor="middle" x="134.9791" y="-2272.5438" font-family="Arial" font-size="9.00" fill="#000000">letter</text>
</g>
<!-- q_number -->
<g id="node3" class="node">
<title>q_number</title>
<ellipse fill="#add8e6" stroke="#000000" cx="235.6449" cy="-2039.8438" rx="43.2723" ry="43.2723"/>
<ellipse fill="none" stroke="#000000" cx="235.6449" cy="-2039.8438" rx="47.2844" ry="47.2844"/>
<text text-anchor="middle" x="235.6449" y="-2042.8438" font-family="Arial" font-size="10.00" fill="#000000">q_number</text>
<text text-anchor="middle" x="235.6449" y="-2030.8438" font-family="Arial" font-size="10.00" fill="#000000">NUMBER</text>
</g>
<!-- q0&#45;&gt;q_number -->
<g id="edge16" class="edge">
<title>q0-&gt;q_number</title>
<path fill="none" stroke="#000000" d="M73.4095,-718.6017C78.1516,-893.9423 100.5507,-1677.1691 124.9783,-1782.8438 142.385,-1858.146 180.899,-1939.1128 207.5619,-1989.6193"/>
<polygon fill="#000000" stroke="#000000" points="204.6027,-1991.5085 212.3948,-1998.6872 210.7801,-1988.2161 204.6027,-1991.5085"/>
<text text-anchor="middle" x="134.9791" y="-1850.5438" font-family="Arial" font-size="9.00" fill="#000000">digit</text>
</g>
<!-- q_plus -->
<g id="node7" class="node">
<title>q_plus</title>
<ellipse fill="#add8e6" stroke="#000000" cx="978.5099" cy="-2039.8438" rx="32.2679" ry="32.2679"/>
<ellipse fill="none" stroke="#000000" cx="978.5099" cy="-2039.8438" rx="36.2836" ry="36.2836"/>
<text text-anchor="middle" x="978.5099" y="-2042.8438" font-family="Arial" font-size="10.00" fill="#000000">q_plus</text>
<text text-anchor="middle" x="978.5099" y="-2030.8438" font-family="Arial" font-size="10.00" fill="#000000">PLUS</text>
</g>
<!-- q0&#45;&gt;q_plus -->
<g id="edge31" class="edge">
<title>q0-&gt;q_plus</title>
<path fill="none" stroke="#000000" d="M72.7674,-718.6532C74.1728,-860.9271 82.2348,-1412.0583 124.9783,-1862.8438 141.1405,-2033.296 64.4281,-2231.8438 235.6449,-2231.8438 235.6449,-2231.8438 235.6449,-2231.8438 820.5867,-2231.8438 854.8167,-2231.8438 868.7305,-2234.5186 895.2238,-2212.8438 934.9435,-2180.3481 957.011,-2124.3702 968.2927,-2084.9058"/>
<polygon fill="#000000" stroke="#000000" points="971.6707,-2085.8218 970.9328,-2075.2527 964.9187,-2083.9751 971.6707,-2085.8218"/>
<text text-anchor="middle" x="560.0551" y="-2234.5438" font-family="Arial" font-size="9.00" fill="#000000">+</text>
</g>
<!-- q_minus -->
<g id="node8" class="node">
<title>q_minus</title>
<ellipse fill="#add8e6" stroke="#000000" cx="978.5099" cy="-1860.8438" rx="38.0591" ry="38.0591"/>
<ellipse fill="none" stroke="#000000" cx="978.5099" cy="-1860.8438" rx="42.0621" ry="42.0621"/>
<text text-anchor="middle" x="978.5099" y="-1863.8438" font-family="Arial" font-size="10.00" fill="#000000">q_minus</text>
<text text-anchor="middle" x="978.5099" y="-1851.8438" font-family="Arial" font-size="10.00" fill="#000000">MINUS</text>
</g>
<!-- q0&#45;&gt;q_minus -->
<g id="edge32" class="edge">
<title>q0-&gt;q_minus</title>
<path fill="none" stroke="#000000" d="M72.636,-718.3526C73.7401,-890.5026 83.1346,-1650.6696 162.9799,-1713.8438 290.7033,-1814.8996 751.9222,-1667.4474 895.2238,-1744.8438 922.7144,-1759.6913 943.3223,-1788.0319 957.162,-1812.9827"/>
<polygon fill="#000000" stroke="#000000" points="954.1676,-1814.8063 961.9548,-1821.9904 960.3474,-1811.5182 954.1676,-1814.8063"/>
<text text-anchor="middle" x="560.0551" y="-1737.5438" font-family="Arial" font-size="9.00" fill="#000000">-</text>
</g>
<!-- q_mul -->
<g id="node9" class="node">
<title>q_mul</title>
<ellipse fill="#add8e6" stroke="#000000" cx="235.6449" cy="-1654.8438" rx="45.7806" ry="45.7806"/>
<ellipse fill="none" stroke="#000000" cx="235.6449" cy="-1654.8438" rx="49.7714" ry="49.7714"/>
<text text-anchor="middle" x="235.6449" y="-1657.8438" font-family="Arial" font-size="10.00" fill="#000000">q_mul</text>
<text text-anchor="middle" x="235.6449" y="-1645.8438" font-family="Arial" font-size="10.00" fill="#000000">MULTIPLY</text>
</g>
<!-- q0&#45;&gt;q_mul -->
<g id="edge33" class="edge">
<title>q0-&gt;q_mul</title>
<path fill="none" stroke="#000000" d="M73.5398,-718.4464C77.7867,-852.1081 94.9113,-1334.7021 124.9783,-1484.8438 135.2173,-1535.973 133.1366,-1553.0838 162.9799,-1595.8438 169.3172,-1604.924 177.429,-1613.3504 185.9218,-1620.8278"/>
<polygon fill="#000000" stroke="#000000" points="183.8756,-1623.6796 193.7884,-1627.4196 188.3715,-1618.3142 183.8756,-1623.6796"/>
<text text-anchor="middle" x="134.9791" y="-1566.5438" font-family="Arial" font-size="9.00" fill="#000000">*</text>
</g>
<!-- q_div -->
<g id="node10" class="node">
<title>q_div</title>
<ellipse fill="#add8e6" stroke="#000000" cx="235.6449" cy="-1547.8438" rx="34.781" ry="34.781"/>
<ellipse fill="none" stroke="#000000" cx="235.6449" cy="-1547.8438" rx="38.7692" ry="38.7692"/>
<text text-anchor="middle" x="235.6449" y="-1550.8438" font-family="Arial" font-size="10.00" fill="#000000">q_div</text>
<text text-anchor="middle" x="235.6449" y="-1538.8438" font-family="Arial" font-size="10.00" fill="#000000">DIVIDE</text>
</g>
<!-- q0&#45;&gt;q_div -->
<g id="edge34" class="edge">
<title>q0-&gt;q_div</title>
<path fill="none" stroke="#000000" d="M73.9546,-718.7052C79.3083,-841.8303 98.8683,-1255.8363 124.9783,-1385.8438 135.4944,-1438.2058 130.4717,-1457.4694 162.9799,-1499.8438 170.7498,-1509.9719 181.2984,-1518.6404 191.9478,-1525.7105"/>
<polygon fill="#000000" stroke="#000000" points="190.1248,-1528.6985 200.4588,-1531.0351 193.8375,-1522.7641 190.1248,-1528.6985"/>
<text text-anchor="middle" x="134.9791" y="-1472.5438" font-family="Arial" font-size="9.00" fill="#000000">/</text>
</g>
<!-- q_eq -->
<g id="node11" class="node">
<title>q_eq</title>
<ellipse fill="#add8e6" stroke="#000000" cx="235.6449" cy="-1451.8438" rx="35.0856" ry="35.0856"/>
<ellipse fill="none" stroke="#000000" cx="235.6449" cy="-1451.8438" rx="39.0634" ry="39.0634"/>
<text text-anchor="middle" x="235.6449" y="-1454.8438" font-family="Arial" font-size="10.00" fill="#000000">q_eq</text>
<text text-anchor="middle" x="235.6449" y="-1442.8438" font-family="Arial" font-size="10.00" fill="#000000">EQUAL</text>
</g>
<!-- q0&#45;&gt;q_eq -->
<g id="edge41" class="edge">
<title>q0-&gt;q_eq</title>
<path fill="none" stroke="#000000" d="M73.9678,-718.3397C78.1319,-806.7292 91.8798,-1048.3421 124.9783,-1246.8438 136.7861,-1317.6589 121.7195,-1345.0919 162.9799,-1403.8438 170.3162,-1414.2903 180.7173,-1423.0671 191.3635,-1430.1394"/>
<polygon fill="#000000" stroke="#000000" points="189.5595,-1433.1391 199.9003,-1435.4452 193.2546,-1427.1938 189.5595,-1433.1391"/>
<text text-anchor="middle" x="134.9791" y="-1373.5438" font-family="Arial" font-size="9.00" fill="#000000">=</text>
</g>
<!-- q_lt -->
<g id="node12" class="node">
<title>q_lt</title>
<ellipse fill="#add8e6" stroke="#000000" cx="235.6449" cy="-1339.8438" rx="50.6953" ry="50.6953"/>
<ellipse fill="none" stroke="#000000" cx="235.6449" cy="-1339.8438" rx="54.7027" ry="54.7027"/>
<text text-anchor="middle" x="235.6449" y="-1342.8438" font-family="Arial" font-size="10.00" fill="#000000">q_lt</text>
<text text-anchor="middle" x="235.6449" y="-1330.8438" font-family="Arial" font-size="10.00" fill="#000000">LESS THAN</text>
</g>
<!-- q0&#45;&gt;q_lt -->
<g id="edge42" class="edge">
<title>q0-&gt;q_lt</title>
<path fill="none" stroke="#000000" d="M74.4667,-718.3103C81.3753,-829.9943 107.1117,-1180.2771 162.9799,-1276.8438 168.1848,-1285.8403 175.155,-1294.1867 182.7242,-1301.6672"/>
<polygon fill="#000000" stroke="#000000" points="180.7433,-1304.6045 190.4499,-1308.851 185.51,-1299.4782 180.7433,-1304.6045"/>
<text text-anchor="middle" x="134.9791" y="-1234.5438" font-family="Arial" font-size="9.00" fill="#000000">&lt;</text>
</g>
<!-- q_gt -->
<g id="node13" class="node">
<title>q_gt</title>
<ellipse fill="#add8e6" stroke="#000000" cx="235.6449" cy="-1196.8438" rx="66.8892" ry="66.8892"/>
<ellipse fill="none" stroke="#000000" cx="235.6449" cy="-1196.8438" rx="70.9005" ry="70.9005"/>
<text text-anchor="middle" x="235.6449" y="-1199.8438" font-family="Arial" font-size="10.00" fill="#000000">q_gt</text>
<text text-anchor="middle" x="235.6449" y="-1187.8438" font-family="Arial" font-size="10.00" fill="#000000">GREATER THAN</text>
</g>
<!-- q0&#45;&gt;q_gt -->
<g id="edge45" class="edge">
<title>q0-&gt;q_gt</title>
<path fill="none" stroke="#000000" d="M76.8525,-718.1143C88.7258,-807.9437 123.3924,-1048.0286 162.9799,-1116.8438 167.446,-1124.6073 172.773,-1132.257 178.4846,-1139.5655"/>
<polygon fill="#000000" stroke="#000000" points="175.7882,-1141.7973 184.8107,-1147.3513 181.221,-1137.3831 175.7882,-1141.7973"/>
<text text-anchor="middle" x="134.9791" y="-1069.5438" font-family="Arial" font-size="9.00" fill="#000000">&gt;</text>
</g>
<!-- q_colon -->
<g id="node17" class="node">
<title>q_colon</title>
<ellipse fill="#add8e6" stroke="#000000" cx="235.6449" cy="-1067.8438" rx="36.4143" ry="36.4143"/>
<ellipse fill="none" stroke="#000000" cx="235.6449" cy="-1067.8438" rx="40.4098" ry="40.4098"/>
<text text-anchor="middle" x="235.6449" y="-1070.8438" font-family="Arial" font-size="10.00" fill="#000000">q_colon</text>
<text text-anchor="middle" x="235.6449" y="-1058.8438" font-family="Arial" font-size="10.00" fill="#000000">COLON</text>
</g>
<!-- q0&#45;&gt;q_colon -->
<g id="edge47" class="edge">
<title>q0-&gt;q_colon</title>
<path fill="none" stroke="#000000" d="M78.1518,-717.8704C91.2547,-793.3048 125.4273,-971.6394 162.9799,-1018.8438 170.6024,-1028.4255 180.6126,-1036.825 190.7562,-1043.8387"/>
<polygon fill="#000000" stroke="#000000" points="188.974,-1046.8552 199.2587,-1049.3998 192.8056,-1040.9969 188.974,-1046.8552"/>
<text text-anchor="middle" x="134.9791" y="-984.5438" font-family="Arial" font-size="9.00" fill="#000000">:</text>
</g>
<!-- q_dot -->
<g id="node19" class="node">
<title>q_dot</title>
<ellipse fill="#add8e6" stroke="#000000" cx="235.6449" cy="-976.8438" rx="29.0037" ry="29.0037"/>
<ellipse fill="none" stroke="#000000" cx="235.6449" cy="-976.8438" rx="33.004" ry="33.004"/>
<text text-anchor="middle" x="235.6449" y="-979.8438" font-family="Arial" font-size="10.00" fill="#000000">q_dot</text>
<text text-anchor="middle" x="235.6449" y="-967.8438" font-family="Arial" font-size="10.00" fill="#000000">DOT</text>
</g>
<!-- q0&#45;&gt;q_dot -->
<g id="edge49" class="edge">
<title>q0-&gt;q_dot</title>
<path fill="none" stroke="#000000" d="M77.2458,-718.4246C85.98,-770.5886 108.9033,-870.1662 162.9799,-934.8438 171.7684,-945.3552 183.9044,-953.8113 195.7431,-960.3036"/>
<polygon fill="#000000" stroke="#000000" points="194.1827,-963.4368 204.6778,-964.8872 197.3779,-957.2085 194.1827,-963.4368"/>
<text text-anchor="middle" x="134.9791" y="-907.5438" font-family="Arial" font-size="9.00" fill="#000000">.</text>
</g>
<!-- q_semicolon -->
<g id="node21" class="node">
<title>q_semicolon</title>
<ellipse fill="#add8e6" stroke="#000000" cx="235.6449" cy="-867.8438" rx="53.9659" ry="53.9659"/>
<ellipse fill="none" stroke="#000000" cx="235.6449" cy="-867.8438" rx="57.9827" ry="57.9827"/>
<text text-anchor="middle" x="235.6449" y="-870.8438" font-family="Arial" font-size="10.00" fill="#000000">q_semicolon</text>
<text text-anchor="middle" x="235.6449" y="-858.8438" font-family="Arial" font-size="10.00" fill="#000000">SEMICOLON</text>
</g>
<!-- q0&#45;&gt;q_semicolon -->
<g id="edge51" class="edge">
<title>q0-&gt;q_semicolon</title>
<path fill="none" stroke="#000000" d="M92.4446,-712.3228C109.9991,-736.6944 136.7732,-772.2653 162.9799,-800.8438 169.6774,-808.1475 177.0511,-815.5656 184.455,-822.6747"/>
<polygon fill="#000000" stroke="#000000" points="182.1751,-825.3359 191.845,-829.6652 186.9854,-820.2505 182.1751,-825.3359"/>
<text text-anchor="middle" x="134.9791" y="-782.5438" font-family="Arial" font-size="9.00" fill="#000000">;</text>
</g>
<!-- q_comma -->
<g id="node22" class="node">
<title>q_comma</title>
<ellipse fill="#add8e6" stroke="#000000" cx="235.6449" cy="-745.8438" rx="42.2162" ry="42.2162"/>
<ellipse fill="none" stroke="#000000" cx="235.6449" cy="-745.8438" rx="46.2034" ry="46.2034"/>
<text text-anchor="middle" x="235.6449" y="-748.8438" font-family="Arial" font-size="10.00" fill="#000000">q_comma</text>
<text text-anchor="middle" x="235.6449" y="-736.8438" font-family="Arial" font-size="10.00" fill="#000000">COMMA</text>
</g>
<!-- q0&#45;&gt;q_comma -->
<g id="edge52" class="edge">
<title>q0-&gt;q_comma</title>
<path fill="none" stroke="#000000" d="M105.114,-696.2414C127.2956,-704.6705 157.1398,-716.0115 182.6927,-725.7217"/>
<polygon fill="#000000" stroke="#000000" points="181.6599,-729.0734 192.251,-729.3539 184.1465,-722.5299 181.6599,-729.0734"/>
<text text-anchor="middle" x="134.9791" y="-714.5438" font-family="Arial" font-size="9.00" fill="#000000">,</text>
</g>
<!-- q_lparen -->
<g id="node23" class="node">
<title>q_lparen</title>
<ellipse fill="#add8e6" stroke="#000000" cx="235.6449" cy="-622.8438" rx="54.8474" ry="54.8474"/>
<ellipse fill="none" stroke="#000000" cx="235.6449" cy="-622.8438" rx="58.8421" ry="58.8421"/>
<text text-anchor="middle" x="235.6449" y="-625.8438" font-family="Arial" font-size="10.00" fill="#000000">q_lparen</text>
<text text-anchor="middle" x="235.6449" y="-613.8438" font-family="Arial" font-size="10.00" fill="#000000">LEFT PAREN</text>
</g>
<!-- q0&#45;&gt;q_lparen -->
<g id="edge53" class="edge">
<title>q0-&gt;q_lparen</title>
<path fill="none" stroke="#000000" d="M105.114,-671.6461C123.9104,-664.6186 148.2091,-655.5339 170.7362,-647.1116"/>
<polygon fill="#000000" stroke="#000000" points="172.12,-650.3309 180.2611,-643.5505 169.6686,-643.7742 172.12,-650.3309"/>
<text text-anchor="middle" x="134.9791" y="-667.5438" font-family="Arial" font-size="9.00" fill="#000000">(</text>
</g>
<!-- q_rparen -->
<g id="node24" class="node">
<title>q_rparen</title>
<ellipse fill="#add8e6" stroke="#000000" cx="235.6449" cy="-481.8438" rx="59.7513" ry="59.7513"/>
<ellipse fill="none" stroke="#000000" cx="235.6449" cy="-481.8438" rx="63.7595" ry="63.7595"/>
<text text-anchor="middle" x="235.6449" y="-484.8438" font-family="Arial" font-size="10.00" fill="#000000">q_rparen</text>
<text text-anchor="middle" x="235.6449" y="-472.8438" font-family="Arial" font-size="10.00" fill="#000000">RIGHT PAREN</text>
</g>
<!-- q0&#45;&gt;q_rparen -->
<g id="edge54" class="edge">
<title>q0-&gt;q_rparen</title>
<path fill="none" stroke="#000000" d="M90.9143,-654.6266C108.3186,-627.7804 135.7474,-587.3459 162.9799,-554.8438 168.9679,-547.697 175.5312,-540.4331 182.1869,-533.3964"/>
<polygon fill="#000000" stroke="#000000" points="185.0175,-535.502 189.4224,-525.8662 179.97,-530.6519 185.0175,-535.502"/>
<text text-anchor="middle" x="134.9791" y="-606.5438" font-family="Arial" font-size="9.00" fill="#000000">)</text>
</g>
<!-- q_lbracket -->
<g id="node25" class="node">
<title>q_lbracket</title>
<ellipse fill="#add8e6" stroke="#000000" cx="235.6449" cy="-331.8438" rx="63.9154" ry="63.9154"/>
<ellipse fill="none" stroke="#000000" cx="235.6449" cy="-331.8438" rx="67.9128" ry="67.9128"/>
<text text-anchor="middle" x="235.6449" y="-334.8438" font-family="Arial" font-size="10.00" fill="#000000">q_lbracket</text>
<text text-anchor="middle" x="235.6449" y="-322.8438" font-family="Arial" font-size="10.00" fill="#000000">LEFT BRACKET</text>
</g>
<!-- q0&#45;&gt;q_lbracket -->
<g id="edge55" class="edge">
<title>q0-&gt;q_lbracket</title>
<path fill="none" stroke="#000000" d="M78.7067,-649.6763C89.613,-595.6032 115.6568,-488.2998 162.9799,-408.8438 167.6077,-401.0736 173.1409,-393.4458 179.0605,-386.1928"/>
<polygon fill="#000000" stroke="#000000" points="181.8049,-388.3681 185.611,-378.4805 176.4696,-383.8365 181.8049,-388.3681"/>
<text text-anchor="middle" x="134.9791" y="-490.5438" font-family="Arial" font-size="9.00" fill="#000000">[</text>
</g>
<!-- q_rbracket -->
<g id="node26" class="node">
<title>q_rbracket</title>
<ellipse fill="#add8e6" stroke="#000000" cx="235.6449" cy="-172.8438" rx="68.8213" ry="68.8213"/>
<ellipse fill="none" stroke="#000000" cx="235.6449" cy="-172.8438" rx="72.8304" ry="72.8304"/>
<text text-anchor="middle" x="235.6449" y="-175.8438" font-family="Arial" font-size="10.00" fill="#000000">q_rbracket</text>
<text text-anchor="middle" x="235.6449" y="-163.8438" font-family="Arial" font-size="10.00" fill="#000000">RIGHT BRACKET</text>
</g>
<!-- q0&#45;&gt;q_rbracket -->
<g id="edge56" class="edge">
<title>q0-&gt;q_rbracket</title>
<path fill="none" stroke="#000000" d="M79.2118,-649.9961C88.9726,-601.1381 107.784,-508.0395 124.9783,-429.0438 133.4349,-390.1915 136.5066,-380.6925 144.9799,-341.8438 153.3942,-303.2652 145.2889,-290.1445 162.9799,-254.8438 166.9001,-247.0213 171.7577,-239.3624 177.0892,-232.0609"/>
<polygon fill="#000000" stroke="#000000" points="180.222,-233.728 183.5379,-223.6654 174.6706,-229.4639 180.222,-233.728"/>
<text text-anchor="middle" x="134.9791" y="-432.5438" font-family="Arial" font-size="9.00" fill="#000000">]</text>
</g>
<!-- q_error -->
<g id="node27" class="node">
<title>q_error</title>
<ellipse fill="#add8e6" stroke="#000000" cx="235.6449" cy="-40.8438" rx="36.7034" ry="36.7034"/>
<ellipse fill="none" stroke="#000000" cx="235.6449" cy="-40.8438" rx="40.6882" ry="40.6882"/>
<text text-anchor="middle" x="235.6449" y="-43.8438" font-family="Arial" font-size="10.00" fill="#000000">q_error</text>
<text text-anchor="middle" x="235.6449" y="-31.8438" font-family="Arial" font-size="10.00" fill="#000000">ERROR</text>
</g>
<!-- q0&#45;&gt;q_error -->
<g id="edge2" class="edge">
<title>q0-&gt;q_error</title>
<path fill="none" stroke="#000000" d="M73.5463,-649.0906C76.9321,-551.5392 89.4465,-276.9665 124.9783,-195.0438 130.3954,-182.5539 138.874,-184.0119 144.9799,-171.8438 161.5196,-138.8827 142.3586,-121.4177 162.9799,-90.8438 169.9372,-80.5286 179.7979,-71.7246 190.0183,-64.5115"/>
<polygon fill="#000000" stroke="#000000" points="192.2125,-67.257 198.6321,-58.8285 188.3576,-61.414 192.2125,-67.257"/>
<text text-anchor="middle" x="134.9791" y="-198.5438" font-family="Arial" font-size="9.00" fill="#000000">@</text>
</g>
<!-- q0&#45;&gt;q_error -->
<g id="edge3" class="edge">
<title>q0-&gt;q_error</title>
<path fill="none" stroke="#000000" d="M73.0678,-649.0442C75.2246,-546.4577 84.8832,-246.9318 124.9783,-159.0438 130.3548,-147.2584 138.0876,-148.8119 144.9799,-137.8438 156.8812,-118.9043 149.1433,-108.4192 162.9799,-90.8438 170.6023,-81.1617 180.6124,-72.6261 190.756,-65.473"/>
<polygon fill="#000000" stroke="#000000" points="192.8863,-68.2591 199.2585,-59.7947 188.9987,-62.4378 192.8863,-68.2591"/>
<text text-anchor="middle" x="134.9791" y="-162.5438" font-family="Arial" font-size="9.00" fill="#000000">$</text>
</g>
<!-- q0&#45;&gt;q_error -->
<g id="edge4" class="edge">
<title>q0-&gt;q_error</title>
<path fill="none" stroke="#000000" d="M74.2867,-649.036C80.4204,-534.1751 101.4535,-171.8378 124.9783,-125.0438 130.0813,-114.8932 154.0589,-97.8787 162.9799,-90.8438 172.4679,-83.3617 183.0105,-75.7417 193.0561,-68.7798"/>
<polygon fill="#000000" stroke="#000000" points="195.0707,-71.6422 201.3435,-63.1039 191.1153,-65.8669 195.0707,-71.6422"/>
<text text-anchor="middle" x="134.9791" y="-128.5438" font-family="Arial" font-size="9.00" fill="#000000">~</text>
</g>
<!-- q0&#45;&gt;q_error -->
<g id="edge5" class="edge">
<title>q0-&gt;q_error</title>
<path fill="none" stroke="#000000" d="M73.5427,-649.1182C77.4578,-529.1014 92.6395,-136.6665 124.9783,-91.0438 139.2192,-70.953 163.4813,-58.7468 185.6653,-51.412"/>
<polygon fill="#000000" stroke="#000000" points="186.7917,-54.7278 195.3381,-48.466 184.7521,-48.0315 186.7917,-54.7278"/>
<text text-anchor="middle" x="134.9791" y="-94.5438" font-family="Arial" font-size="9.00" fill="#000000">`</text>
</g>
<!-- q0&#45;&gt;q_error -->
<g id="edge6" class="edge">
<title>q0-&gt;q_error</title>
<path fill="none" stroke="#000000" d="M72.9444,-649.0146C74.9112,-523.7833 84.5156,-101.465 124.9783,-58.0438 140.0262,-41.8956 163.49,-36.6868 184.9467,-35.8908"/>
<polygon fill="#000000" stroke="#000000" points="184.9742,-39.3908 194.9487,-35.8187 184.9237,-32.391 184.9742,-39.3908"/>
<text text-anchor="middle" x="134.9791" y="-61.5438" font-family="Arial" font-size="9.00" fill="#000000">#</text>
</g>
<!-- q0&#45;&gt;q_error -->
<g id="edge7" class="edge">
<title>q0-&gt;q_error</title>
<path fill="none" stroke="#000000" d="M73.9857,-649.0537C79.8426,-516.7419 102.0187,-51.234 124.9783,-30.0438 141.7087,-14.6027 166.5116,-15.681 188.3983,-21.3352"/>
<polygon fill="#000000" stroke="#000000" points="187.6289,-24.7568 198.2097,-24.2121 189.5986,-18.0397 187.6289,-24.7568"/>
<text text-anchor="middle" x="134.9791" y="-33.5438" font-family="Arial" font-size="9.00" fill="#000000">\</text>
</g>
<!-- q0&#45;&gt;q_error -->
<g id="edge8" class="edge">
<title>q0-&gt;q_error</title>
<path fill="none" stroke="#000000" d="M74.957,-649.2571C80.9274,-571.4972 97.7026,-385.2793 124.9783,-329.0438 130.6314,-317.3885 139.7032,-319.6743 144.9799,-307.8438 184.4005,-219.4609 114.4383,-174.565 162.9799,-90.8438 169.4044,-79.7633 179.3876,-70.5859 189.9183,-63.2509"/>
<polygon fill="#000000" stroke="#000000" points="191.919,-66.1253 198.4236,-57.7622 188.1234,-60.2437 191.919,-66.1253"/>
<text text-anchor="middle" x="134.9791" y="-332.5438" font-family="Arial" font-size="9.00" fill="#000000">|</text>
</g>
<!-- q0&#45;&gt;q_error -->
<g id="edge9" class="edge">
<title>q0-&gt;q_error</title>
<path fill="none" stroke="#000000" d="M74.4403,-649.3869C79.5678,-566.3809 95.1297,-357.591 124.9783,-295.0438 130.5574,-283.3529 139.613,-285.6336 144.9799,-273.8438 178.8396,-199.4621 121.4479,-161.23 162.9799,-90.8438 169.4274,-79.9168 179.3127,-70.8255 189.7353,-63.5262"/>
<polygon fill="#000000" stroke="#000000" points="191.6757,-66.4394 198.1537,-58.0556 187.8614,-60.5698 191.6757,-66.4394"/>
<text text-anchor="middle" x="134.9791" y="-298.5438" font-family="Arial" font-size="9.00" fill="#000000">^</text>
</g>
<!-- q0&#45;&gt;q_error -->
<g id="edge10" class="edge">
<title>q0-&gt;q_error</title>
<path fill="none" stroke="#000000" d="M74.0167,-649.3263C78.3513,-561.1801 92.573,-329.8916 124.9783,-261.0438 130.4949,-249.3233 139.4826,-251.5734 144.9799,-239.8438 173.2872,-179.4445 128.4471,-147.9128 162.9799,-90.8438 169.5482,-79.9889 179.4761,-70.9231 189.901,-63.6252"/>
<polygon fill="#000000" stroke="#000000" points="191.8407,-66.5389 198.3134,-58.1511 188.0228,-60.6717 191.8407,-66.5389"/>
<text text-anchor="middle" x="134.9791" y="-264.5438" font-family="Arial" font-size="9.00" fill="#000000">?</text>
</g>
<!-- q0&#45;&gt;q_error -->
<g id="edge11" class="edge">
<title>q0-&gt;q_error</title>
<path fill="none" stroke="#000000" d="M73.6532,-649.2919C77.2281,-556.2202 90.0074,-302.2294 124.9783,-227.0438 130.4414,-215.2983 139.2779,-217.4753 144.9799,-205.8438 167.7515,-159.3917 135.426,-134.6288 162.9799,-90.8438 169.7374,-80.1057 179.732,-71.081 190.1606,-63.7854"/>
<polygon fill="#000000" stroke="#000000" points="192.0992,-66.6997 198.5636,-58.3055 188.2755,-60.8363 192.0992,-66.6997"/>
<text text-anchor="middle" x="134.9791" y="-230.5438" font-family="Arial" font-size="9.00" fill="#000000">!</text>
</g>
<!-- q_char_start -->
<g id="node28" class="node">
<title>q_char_start</title>
<ellipse fill="#ffffe0" stroke="#000000" cx="235.6449" cy="-1815.8438" rx="43.0755" ry="43.0755"/>
<text text-anchor="middle" x="235.6449" y="-1812.8438" font-family="Arial" font-size="10.00" fill="#000000">q_char_start</text>
</g>
<!-- q0&#45;&gt;q_char_start -->
<g id="edge25" class="edge">
<title>q0-&gt;q_char_start</title>
<path fill="none" stroke="#000000" d="M73.299,-718.4566C77.5751,-896.3819 98.3411,-1701.5176 124.9783,-1746.8438 138.5392,-1769.9193 163.1736,-1786.3966 185.7631,-1797.449"/>
<polygon fill="#000000" stroke="#000000" points="184.4051,-1800.6772 194.9493,-1801.7114 187.3514,-1794.3275 184.4051,-1800.6772"/>
<text text-anchor="middle" x="134.9791" y="-1770.5438" font-family="Arial" font-size="9.00" fill="#000000">'</text>
</g>
<!-- q_identifier&#45;&gt;q_identifier -->
<g id="edge13" class="edge">
<title>q_identifier-&gt;q_identifier</title>
<path fill="none" stroke="#000000" d="M229.9119,-2369.2962C230.5776,-2379.9043 232.4886,-2387.4373 235.6449,-2387.4373 237.6669,-2387.4373 239.1778,-2384.3457 240.1777,-2379.3347"/>
<polygon fill="#000000" stroke="#000000" points="243.6659,-2379.6411 241.3779,-2369.2962 236.7154,-2378.81 243.6659,-2379.6411"/>
<text text-anchor="middle" x="235.6449" y="-2390.1373" font-family="Arial" font-size="9.00" fill="#000000">letter</text>
</g>
<!-- q_identifier&#45;&gt;q_identifier -->
<g id="edge14" class="edge">
<title>q_identifier-&gt;q_identifier</title>
<path fill="none" stroke="#000000" d="M223.6808,-2368.3363C223.2193,-2388.6418 227.2074,-2405.4373 235.6449,-2405.4373 242.6322,-2405.4373 246.5681,-2393.9191 247.4526,-2378.4278"/>
<polygon fill="#000000" stroke="#000000" points="250.9535,-2378.3893 247.609,-2368.3363 243.9544,-2378.2808 250.9535,-2378.3893"/>
<text text-anchor="middle" x="235.6449" y="-2408.1373" font-family="Arial" font-size="9.00" fill="#000000">digit</text>
</g>
<!-- q_identifier&#45;&gt;q_identifier -->
<g id="edge15" class="edge">
<title>q_identifier-&gt;q_identifier</title>
<path fill="none" stroke="#000000" d="M218.5688,-2366.7988C215.2341,-2396.2083 220.9261,-2423.4373 235.6449,-2423.4373 248.6388,-2423.4373 254.5976,-2402.2161 253.5214,-2377.0079"/>
<polygon fill="#000000" stroke="#000000" points="256.992,-2376.4946 252.7209,-2366.7988 250.0134,-2377.0418 256.992,-2376.4946"/>
<text text-anchor="middle" x="235.6449" y="-2426.1373" font-family="Arial" font-size="9.00" fill="#000000">_</text>
</g>
<!-- q_number&#45;&gt;q_number -->
<g id="edge17" class="edge">
<title>q_number-&gt;q_number</title>
<path fill="none" stroke="#000000" d="M217.7547,-2083.6847C218.619,-2095.7589 224.5824,-2104.9858 235.6449,-2104.9858 243.4232,-2104.9858 248.6806,-2100.4242 251.4171,-2093.5185"/>
<polygon fill="#000000" stroke="#000000" points="254.851,-2094.1975 253.535,-2083.6847 248.0079,-2092.7236 254.851,-2094.1975"/>
<text text-anchor="middle" x="235.6449" y="-2107.6858" font-family="Arial" font-size="9.00" fill="#000000">digit</text>
</g>
<!-- q_exp -->
<g id="node31" class="node">
<title>q_exp</title>
<ellipse fill="#ffffe0" stroke="#000000" cx="446.8091" cy="-2073.8438" rx="25.9989" ry="25.9989"/>
<text text-anchor="middle" x="446.8091" y="-2070.8438" font-family="Arial" font-size="10.00" fill="#000000">q_exp</text>
</g>
<!-- q_number&#45;&gt;q_exp -->
<g id="edge18" class="edge">
<title>q_number-&gt;q_exp</title>
<path fill="none" stroke="#000000" d="M282.2472,-2047.3473C321.0482,-2053.5948 375.4962,-2062.3616 410.9592,-2068.0715"/>
<polygon fill="#000000" stroke="#000000" points="410.4436,-2071.5335 420.8728,-2069.6677 411.5564,-2064.6225 410.4436,-2071.5335"/>
<text text-anchor="middle" x="333.563" y="-2057.5438" font-family="Arial" font-size="9.00" fill="#000000">e</text>
</g>
<!-- q_number&#45;&gt;q_exp -->
<g id="edge19" class="edge">
<title>q_number-&gt;q_exp</title>
<path fill="none" stroke="#000000" d="M282.7531,-2036.1682C300.9907,-2035.6098 321.9745,-2036.0299 340.8161,-2039.0438 365.6336,-2043.0136 392.5256,-2051.9005 413.0122,-2059.6996"/>
<polygon fill="#000000" stroke="#000000" points="411.9296,-2063.0342 422.5176,-2063.4145 414.4777,-2056.5145 411.9296,-2063.0342"/>
<text text-anchor="middle" x="333.563" y="-2041.5438" font-family="Arial" font-size="9.00" fill="#000000">E</text>
</g>
<!-- q_scientific -->
<g id="node4" class="node">
<title>q_scientific</title>
<ellipse fill="#add8e6" stroke="#000000" cx="820.5867" cy="-2125.8438" rx="46.08" ry="46.08"/>
<ellipse fill="none" stroke="#000000" cx="820.5867" cy="-2125.8438" rx="50.0626" ry="50.0626"/>
<text text-anchor="middle" x="820.5867" y="-2128.8438" font-family="Arial" font-size="10.00" fill="#000000">q_scientific</text>
<text text-anchor="middle" x="820.5867" y="-2116.8438" font-family="Arial" font-size="10.00" fill="#000000">NUMBER</text>
</g>
<!-- q_scientific&#45;&gt;q_scientific -->
<g id="edge24" class="edge">
<title>q_scientific-&gt;q_scientific</title>
<path fill="none" stroke="#000000" d="M803.1725,-2173.0737C804.3171,-2185.0978 810.1218,-2194.1246 820.5867,-2194.1246 827.9448,-2194.1246 832.999,-2189.6619 835.7493,-2182.8324"/>
<polygon fill="#000000" stroke="#000000" points="839.163,-2183.6046 838.0008,-2173.0737 832.3422,-2182.0308 839.163,-2183.6046"/>
<text text-anchor="middle" x="820.5867" y="-2196.8246" font-family="Arial" font-size="9.00" fill="#000000">digit</text>
</g>
<!-- q_scientific&#45;&gt;q_plus -->
<g id="edge35" class="edge">
<title>q_scientific-&gt;q_plus</title>
<path fill="none" stroke="#000000" d="M864.9974,-2101.6591C887.7692,-2089.2583 915.3167,-2074.2568 937.5711,-2062.1378"/>
<polygon fill="#000000" stroke="#000000" points="939.3335,-2065.1634 946.4418,-2057.3071 935.9857,-2059.0159 939.3335,-2065.1634"/>
<text text-anchor="middle" x="915.8514" y="-2077.5438" font-family="Arial" font-size="9.00" fill="#000000">+</text>
</g>
<!-- q_scientific&#45;&gt;q_minus -->
<g id="edge36" class="edge">
<title>q_scientific-&gt;q_minus</title>
<path fill="none" stroke="#000000" d="M862.9609,-2098.1314C874.4786,-2089.1538 886.2376,-2078.478 895.2238,-2066.8438 914.7592,-2041.5518 943.895,-1962.7074 962.021,-1910.2251"/>
<polygon fill="#000000" stroke="#000000" points="965.3367,-1911.3458 965.2726,-1900.7512 958.7158,-1909.0734 965.3367,-1911.3458"/>
<text text-anchor="middle" x="915.8514" y="-2037.5438" font-family="Arial" font-size="9.00" fill="#000000">-</text>
</g>
<!-- q_char_lit -->
<g id="node5" class="node">
<title>q_char_lit</title>
<ellipse fill="#add8e6" stroke="#000000" cx="820.5867" cy="-1821.8438" rx="63.9154" ry="63.9154"/>
<ellipse fill="none" stroke="#000000" cx="820.5867" cy="-1821.8438" rx="67.9128" ry="67.9128"/>
<text text-anchor="middle" x="820.5867" y="-1824.8438" font-family="Arial" font-size="10.00" fill="#000000">q_char_lit</text>
<text text-anchor="middle" x="820.5867" y="-1812.8438" font-family="Arial" font-size="10.00" fill="#000000">CHAR_LITERAL</text>
</g>
<!-- q_char_lit&#45;&gt;q_plus -->
<g id="edge37" class="edge">
<title>q_char_lit-&gt;q_plus</title>
<path fill="none" stroke="#000000" d="M869.7998,-1869.1463C878.6799,-1878.6273 887.5453,-1888.7783 895.2238,-1898.8438 919.2638,-1930.3569 941.8203,-1969.3631 957.3796,-1998.3555"/>
<polygon fill="#000000" stroke="#000000" points="954.3979,-2000.2033 962.1784,-2007.3945 960.5806,-1996.9209 954.3979,-2000.2033"/>
<text text-anchor="middle" x="915.8514" y="-1934.5438" font-family="Arial" font-size="9.00" fill="#000000">+</text>
</g>
<!-- q_char_lit&#45;&gt;q_minus -->
<g id="edge38" class="edge">
<title>q_char_lit-&gt;q_minus</title>
<path fill="none" stroke="#000000" d="M886.6453,-1838.1573C900.3854,-1841.5505 914.6612,-1845.076 927.7474,-1848.3077"/>
<polygon fill="#000000" stroke="#000000" points="926.9465,-1851.715 937.494,-1850.7147 928.6248,-1844.9192 926.9465,-1851.715"/>
<text text-anchor="middle" x="915.8514" y="-1848.5438" font-family="Arial" font-size="9.00" fill="#000000">-</text>
</g>
<!-- q_string_lit -->
<g id="node6" class="node">
<title>q_string_lit</title>
<ellipse fill="#add8e6" stroke="#000000" cx="820.5867" cy="-1982.8438" rx="70.7672" ry="70.7672"/>
<ellipse fill="none" stroke="#000000" cx="820.5867" cy="-1982.8438" rx="74.7745" ry="74.7745"/>
<text text-anchor="middle" x="820.5867" y="-1985.8438" font-family="Arial" font-size="10.00" fill="#000000">q_string_lit</text>
<text text-anchor="middle" x="820.5867" y="-1973.8438" font-family="Arial" font-size="10.00" fill="#000000">STRING_LITERAL</text>
</g>
<!-- q_string_lit&#45;&gt;q_plus -->
<g id="edge39" class="edge">
<title>q_string_lit-&gt;q_plus</title>
<path fill="none" stroke="#000000" d="M894.366,-1995.1814C902.6235,-1997.4091 910.8141,-2000.0115 918.4789,-2003.0438 925.7522,-2005.9212 933.1398,-2009.6591 940.1303,-2013.6476"/>
<polygon fill="#000000" stroke="#000000" points="938.3542,-2016.6636 948.7339,-2018.7879 941.9445,-2010.6544 938.3542,-2016.6636"/>
<text text-anchor="middle" x="915.8514" y="-2005.5438" font-family="Arial" font-size="9.00" fill="#000000">+</text>
</g>
<!-- q_string_lit&#45;&gt;q_minus -->
<g id="edge40" class="edge">
<title>q_string_lit-&gt;q_minus</title>
<path fill="none" stroke="#000000" d="M879.2536,-1936.4498C890.4979,-1927.6401 902.201,-1918.527 913.2238,-1910.0438 920.6576,-1904.3227 928.6046,-1898.2763 936.3043,-1892.4538"/>
<polygon fill="#000000" stroke="#000000" points="938.652,-1895.067 944.5263,-1886.2497 934.4357,-1889.4792 938.652,-1895.067"/>
<text text-anchor="middle" x="915.8514" y="-1912.5438" font-family="Arial" font-size="9.00" fill="#000000">-</text>
</g>
<!-- q_ne -->
<g id="node14" class="node">
<title>q_ne</title>
<ellipse fill="#add8e6" stroke="#000000" cx="446.8091" cy="-1520.8438" rx="52.3304" ry="52.3304"/>
<ellipse fill="none" stroke="#000000" cx="446.8091" cy="-1520.8438" rx="56.3426" ry="56.3426"/>
<text text-anchor="middle" x="446.8091" y="-1523.8438" font-family="Arial" font-size="10.00" fill="#000000">q_ne</text>
<text text-anchor="middle" x="446.8091" y="-1511.8438" font-family="Arial" font-size="10.00" fill="#000000">NOT EQUAL</text>
</g>
<!-- q_lt&#45;&gt;q_ne -->
<g id="edge44" class="edge">
<title>q_lt-&gt;q_ne</title>
<path fill="none" stroke="#000000" d="M277.2661,-1375.5114C287.5542,-1384.5973 298.4496,-1394.4528 308.3099,-1403.8438 331.6399,-1426.0634 334.5541,-1434.6458 358.8161,-1455.8438 369.2893,-1464.9944 380.9706,-1474.2283 392.3118,-1482.7493"/>
<polygon fill="#000000" stroke="#000000" points="390.3716,-1485.6679 400.4878,-1488.8165 394.543,-1480.0466 390.3716,-1485.6679"/>
<text text-anchor="middle" x="333.563" y="-1440.5438" font-family="Arial" font-size="9.00" fill="#000000">&gt;</text>
</g>
<!-- q_let -->
<g id="node15" class="node">
<title>q_let</title>
<ellipse fill="#add8e6" stroke="#000000" cx="446.8091" cy="-1374.8438" rx="67.7946" ry="67.7946"/>
<ellipse fill="none" stroke="#000000" cx="446.8091" cy="-1374.8438" rx="71.7887" ry="71.7887"/>
<text text-anchor="middle" x="446.8091" y="-1377.8438" font-family="Arial" font-size="10.00" fill="#000000">q_let</text>
<text text-anchor="middle" x="446.8091" y="-1365.8438" font-family="Arial" font-size="10.00" fill="#000000">LESS OR EQUAL</text>
</g>
<!-- q_lt&#45;&gt;q_let -->
<g id="edge43" class="edge">
<title>q_lt-&gt;q_let</title>
<path fill="none" stroke="#000000" d="M289.7507,-1348.8117C312.8364,-1352.6381 340.2693,-1357.1851 365.698,-1361.3998"/>
<polygon fill="#000000" stroke="#000000" points="365.2659,-1364.8759 375.7037,-1363.0582 366.4106,-1357.9701 365.2659,-1364.8759"/>
<text text-anchor="middle" x="333.563" y="-1358.5438" font-family="Arial" font-size="9.00" fill="#000000">=</text>
</g>
<!-- q_get -->
<g id="node16" class="node">
<title>q_get</title>
<ellipse fill="#add8e6" stroke="#000000" cx="446.8091" cy="-1196.8438" rx="83.9863" ry="83.9863"/>
<ellipse fill="none" stroke="#000000" cx="446.8091" cy="-1196.8438" rx="87.9859" ry="87.9859"/>
<text text-anchor="middle" x="446.8091" y="-1199.8438" font-family="Arial" font-size="10.00" fill="#000000">q_get</text>
<text text-anchor="middle" x="446.8091" y="-1187.8438" font-family="Arial" font-size="10.00" fill="#000000">GREATER OR EQUAL</text>
</g>
<!-- q_gt&#45;&gt;q_get -->
<g id="edge46" class="edge">
<title>q_gt-&gt;q_get</title>
<path fill="none" stroke="#000000" d="M306.5469,-1196.8438C319.9485,-1196.8438 334.1886,-1196.8438 348.2613,-1196.8438"/>
<polygon fill="#000000" stroke="#000000" points="348.4645,-1200.3439 358.4644,-1196.8438 348.4644,-1193.3439 348.4645,-1200.3439"/>
<text text-anchor="middle" x="333.563" y="-1199.5438" font-family="Arial" font-size="9.00" fill="#000000">=</text>
</g>
<!-- q_assign -->
<g id="node18" class="node">
<title>q_assign</title>
<ellipse fill="#add8e6" stroke="#000000" cx="446.8091" cy="-1028.8438" rx="58.1172" ry="58.1172"/>
<ellipse fill="none" stroke="#000000" cx="446.8091" cy="-1028.8438" rx="62.1211" ry="62.1211"/>
<text text-anchor="middle" x="446.8091" y="-1031.8438" font-family="Arial" font-size="10.00" fill="#000000">q_assign</text>
<text text-anchor="middle" x="446.8091" y="-1019.8438" font-family="Arial" font-size="10.00" fill="#000000">ASSIGNMENT</text>
</g>
<!-- q_colon&#45;&gt;q_assign -->
<g id="edge48" class="edge">
<title>q_colon-&gt;q_assign</title>
<path fill="none" stroke="#000000" d="M275.8603,-1060.4164C303.9474,-1055.229 342.2093,-1048.1624 375.4142,-1042.0297"/>
<polygon fill="#000000" stroke="#000000" points="376.342,-1045.4177 385.54,-1040.1596 375.0706,-1038.5341 376.342,-1045.4177"/>
<text text-anchor="middle" x="333.563" y="-1052.5438" font-family="Arial" font-size="9.00" fill="#000000">=</text>
</g>
<!-- q_range -->
<g id="node20" class="node">
<title>q_range</title>
<ellipse fill="#add8e6" stroke="#000000" cx="446.8091" cy="-907.8438" rx="37.0303" ry="37.0303"/>
<ellipse fill="none" stroke="#000000" cx="446.8091" cy="-907.8438" rx="41.0065" ry="41.0065"/>
<text text-anchor="middle" x="446.8091" y="-910.8438" font-family="Arial" font-size="10.00" fill="#000000">q_range</text>
<text text-anchor="middle" x="446.8091" y="-898.8438" font-family="Arial" font-size="10.00" fill="#000000">RANGE</text>
</g>
<!-- q_dot&#45;&gt;q_range -->
<g id="edge50" class="edge">
<title>q_dot-&gt;q_range</title>
<path fill="none" stroke="#000000" d="M267.2583,-966.5138C301.8026,-955.2261 357.5766,-937.0014 397.8024,-923.8572"/>
<polygon fill="#000000" stroke="#000000" points="398.9965,-927.1492 407.4148,-920.7163 396.8222,-920.4954 398.9965,-927.1492"/>
<text text-anchor="middle" x="333.563" y="-948.5438" font-family="Arial" font-size="9.00" fill="#000000">.</text>
</g>
<!-- q_char_content -->
<g id="node29" class="node">
<title>q_char_content</title>
<ellipse fill="#ffffe0" stroke="#000000" cx="446.8091" cy="-1821.8438" rx="51.1289" ry="51.1289"/>
<text text-anchor="middle" x="446.8091" y="-1818.8438" font-family="Arial" font-size="10.00" fill="#000000">q_char_content</text>
</g>
<!-- q_char_start&#45;&gt;q_char_content -->
<g id="edge26" class="edge">
<title>q_char_start-&gt;q_char_content</title>
<path fill="none" stroke="#000000" d="M278.8867,-1817.0725C309.5046,-1817.9424 351.0196,-1819.122 385.1099,-1820.0907"/>
<polygon fill="#000000" stroke="#000000" points="385.3355,-1823.5984 395.431,-1820.3839 385.5344,-1816.6012 385.3355,-1823.5984"/>
<text text-anchor="middle" x="333.563" y="-1820.5438" font-family="Arial" font-size="9.00" fill="#000000">any</text>
</g>
<!-- q_char_content&#45;&gt;q_char_lit -->
<g id="edge27" class="edge">
<title>q_char_content-&gt;q_char_lit</title>
<path fill="none" stroke="#000000" d="M497.9975,-1821.8438C561.1086,-1821.8438 669.0138,-1821.8438 742.4933,-1821.8438"/>
<polygon fill="#000000" stroke="#000000" points="742.6249,-1825.3439 752.6249,-1821.8438 742.6249,-1818.3439 742.6249,-1825.3439"/>
<text text-anchor="middle" x="639.3781" y="-1824.5438" font-family="Arial" font-size="9.00" fill="#000000">'</text>
</g>
<!-- q_string_content -->
<g id="node30" class="node">
<title>q_string_content</title>
<ellipse fill="#ffffe0" stroke="#000000" cx="639.3781" cy="-1921.8438" rx="54.1399" ry="54.1399"/>
<text text-anchor="middle" x="639.3781" y="-1918.8438" font-family="Arial" font-size="10.00" fill="#000000">q_string_content</text>
</g>
<!-- q_char_content&#45;&gt;q_string_content -->
<g id="edge28" class="edge">
<title>q_char_content-&gt;q_string_content</title>
<path fill="none" stroke="#000000" d="M492.4453,-1845.5424C519.3417,-1859.5096 553.6094,-1877.3046 582.285,-1892.1956"/>
<polygon fill="#000000" stroke="#000000" points="580.8945,-1895.4173 591.3823,-1896.9198 584.1206,-1889.205 580.8945,-1895.4173"/>
<text text-anchor="middle" x="560.0551" y="-1885.5438" font-family="Arial" font-size="9.00" fill="#000000">any</text>
</g>
<!-- q_string_content&#45;&gt;q_string_lit -->
<g id="edge30" class="edge">
<title>q_string_content-&gt;q_string_lit</title>
<path fill="none" stroke="#000000" d="M690.8205,-1939.1608C706.1275,-1944.3136 723.2811,-1950.0879 739.9764,-1955.7081"/>
<polygon fill="#000000" stroke="#000000" points="739.1419,-1959.1201 749.736,-1958.9934 741.3752,-1952.4859 739.1419,-1959.1201"/>
<text text-anchor="middle" x="719.6988" y="-1952.5438" font-family="Arial" font-size="9.00" fill="#000000">'</text>
</g>
<!-- q_string_content&#45;&gt;q_string_content -->
<g id="edge29" class="edge">
<title>q_string_content-&gt;q_string_content</title>
<path fill="none" stroke="#000000" d="M625.1852,-1974.3175C626.5729,-1985.6762 631.3039,-1993.9137 639.3781,-1993.9137 644.803,-1993.9137 648.7187,-1990.1952 651.1252,-1984.3098"/>
<polygon fill="#000000" stroke="#000000" points="654.593,-1984.8629 653.5711,-1974.3175 647.7938,-1983.1985 654.593,-1984.8629"/>
<text text-anchor="middle" x="639.3781" y="-1996.6137" font-family="Arial" font-size="9.00" fill="#000000">any</text>
</g>
<!-- q_exp&#45;&gt;q_scientific -->
<g id="edge22" class="edge">
<title>q_exp-&gt;q_scientific</title>
<path fill="none" stroke="#000000" d="M472.4101,-2068.8925C517.653,-2061.0535 614.4276,-2048.3878 693.448,-2066.0438 719.2876,-2071.8173 746.0719,-2083.4456 768.3543,-2094.9258"/>
<polygon fill="#000000" stroke="#000000" points="766.8167,-2098.0719 777.2938,-2099.6469 770.0856,-2091.882 766.8167,-2098.0719"/>
<text text-anchor="middle" x="639.3781" y="-2068.5438" font-family="Arial" font-size="9.00" fill="#000000">digit</text>
</g>
<!-- q_exp_sign -->
<g id="node32" class="node">
<title>q_exp_sign</title>
<ellipse fill="#ffffe0" stroke="#000000" cx="639.3781" cy="-2125.8438" rx="40.2384" ry="40.2384"/>
<text text-anchor="middle" x="639.3781" y="-2122.8438" font-family="Arial" font-size="10.00" fill="#000000">q_exp_sign</text>
</g>
<!-- q_exp&#45;&gt;q_exp_sign -->
<g id="edge20" class="edge">
<title>q_exp-&gt;q_exp_sign</title>
<path fill="none" stroke="#000000" d="M473.1452,-2075.6241C497.8849,-2077.8079 535.7212,-2082.4725 567.3082,-2092.0438 576.244,-2094.7515 585.483,-2098.3842 594.2428,-2102.265"/>
<polygon fill="#000000" stroke="#000000" points="592.976,-2105.535 603.5229,-2106.5416 595.9057,-2099.1775 592.976,-2105.535"/>
<text text-anchor="middle" x="560.0551" y="-2094.5438" font-family="Arial" font-size="9.00" fill="#000000">-</text>
</g>
<!-- q_exp&#45;&gt;q_exp_sign -->
<g id="edge21" class="edge">
<title>q_exp-&gt;q_exp_sign</title>
<path fill="none" stroke="#000000" d="M472.0656,-2080.8105C493.5311,-2086.718 525.1719,-2095.3939 552.802,-2102.8438 564.885,-2106.1017 577.9259,-2109.584 590.1287,-2112.8277"/>
<polygon fill="#000000" stroke="#000000" points="589.5792,-2116.303 600.1425,-2115.4861 591.3754,-2109.5373 589.5792,-2116.303"/>
<text text-anchor="middle" x="560.0551" y="-2108.5438" font-family="Arial" font-size="9.00" fill="#000000">+</text>
</g>
<!-- q_exp_sign&#45;&gt;q_scientific -->
<g id="edge23" class="edge">
<title>q_exp_sign-&gt;q_scientific</title>
<path fill="none" stroke="#000000" d="M680.0449,-2125.8438C703.5354,-2125.8438 733.5388,-2125.8438 759.7867,-2125.8438"/>
<polygon fill="#000000" stroke="#000000" points="760.0169,-2129.3439 770.0168,-2125.8438 760.0168,-2122.3439 760.0169,-2129.3439"/>
<text text-anchor="middle" x="719.6988" y="-2128.5438" font-family="Arial" font-size="9.00" fill="#000000">digit</text>
</g>
<!-- start -->
<g id="node33" class="node">
<title>start</title>
<polygon fill="#ffffe0" stroke="transparent" points="1,-684.3438 0,-684.3438 0,-683.3438 1,-683.3438 1,-684.3438"/>
</g>
<!-- start&#45;&gt;q0 -->
<g id="edge1" class="edge">
<title>start-&gt;q0</title>
<path fill="none" stroke="#000000" d="M1.3085,-683.8438C4.3069,-683.8438 15.2628,-683.8438 27.7114,-683.8438"/>
<polygon fill="#000000" stroke="#000000" points="27.8915,-687.3439 37.8915,-683.8438 27.8915,-680.3439 27.8915,-687.3439"/>
</g>
</g>
</svg>